<?xml version="1.0" encoding="UTF-8"?>
<svg xmlns="http://www.w3.org/2000/svg" width="287" height="37">
   <defs>
      <style type="text/css">
    @namespace "http://www.w3.org/2000/svg";
    .line                 {fill: none; stroke: #181818; stroke-width: 1;}
    .bold-line            {stroke: #F0F0F0; shape-rendering: crispEdges; stroke-width: 2;}
    .thin-line            {stroke: #F0F0F0; shape-rendering: crispEdges}
    .filled               {fill: #181818; stroke: none;}
    text.terminal         {font-family: Verdana, Sans-serif;
                            font-size: 12px;
                            fill: #F0F0F0;
                            font-weight: bold;
                          }
    text.nonterminal      {font-family: Verdana, Sans-serif;
                            font-size: 12px;
                            fill: #F0F0F0;
                            font-weight: normal;
                          }
    text.regexp           {font-family: Verdana, Sans-serif;
                            font-size: 12px;
                            fill: #F0F0F0;
                            font-weight: normal;
                          }
    rect, circle, polygon {fill: #181818; stroke: #181818;}
    rect.terminal         {fill: #333333; stroke: #181818; stroke-width: 1;}
    rect.nonterminal      {fill: #404040; stroke: #181818; stroke-width: 1;}
    rect.text             {fill: none; stroke: none;}
    polygon.regexp        {fill: #464646; stroke: #181818; stroke-width: 1;}
  </style>
   </defs>
   <polygon points="9 17 1 13 1 21"/>
   <polygon points="17 17 9 13 9 21"/>
   <rect x="31" y="3" width="112" height="32" rx="10"/>
   <rect x="29"
         y="1"
         width="112"
         height="32"
         class="terminal"
         rx="10"/>
   <text class="terminal" x="39" y="21">--cloudprofile</text>
   <a xmlns:xlink="http://www.w3.org/1999/xlink"
      xlink:href="#CloudProfile"
      xlink:title="CloudProfile">
      <rect x="163" y="3" width="96" height="32"/>
      <rect x="161" y="1" width="96" height="32" class="nonterminal"/>
      <text class="nonterminal" x="171" y="21">CloudProfile</text>
   </a>
   <path class="line"
         d="m17 17 h2 m0 0 h10 m112 0 h10 m0 0 h10 m96 0 h10 m3 0 h-3"/>
   <polygon points="277 17 285 13 285 21"/>
   <polygon points="277 17 269 13 269 21"/>
</svg>
