<?xml version="1.0" encoding="UTF-8"?>
<svg xmlns="http://www.w3.org/2000/svg" width="1431" height="257">
   <defs>
      <style type="text/css">
    @namespace "http://www.w3.org/2000/svg";
    .line                 {fill: none; stroke: #181818; stroke-width: 1;}
    .bold-line            {stroke: #F0F0F0; shape-rendering: crispEdges; stroke-width: 2;}
    .thin-line            {stroke: #F0F0F0; shape-rendering: crispEdges}
    .filled               {fill: #181818; stroke: none;}
    text.terminal         {font-family: Verdana, Sans-serif;
                            font-size: 12px;
                            fill: #F0F0F0;
                            font-weight: bold;
                          }
    text.nonterminal      {font-family: Verdana, Sans-serif;
                            font-size: 12px;
                            fill: #F0F0F0;
                            font-weight: normal;
                          }
    text.regexp           {font-family: Verdana, Sans-serif;
                            font-size: 12px;
                            fill: #F0F0F0;
                            font-weight: normal;
                          }
    rect, circle, polygon {fill: #181818; stroke: #181818;}
    rect.terminal         {fill: #333333; stroke: #181818; stroke-width: 1;}
    rect.nonterminal      {fill: #404040; stroke: #181818; stroke-width: 1;}
    rect.text             {fill: none; stroke: none;}
    polygon.regexp        {fill: #464646; stroke: #181818; stroke-width: 1;}
  </style>
   </defs>
   <polygon points="9 17 1 13 1 21"/>
   <polygon points="17 17 9 13 9 21"/>
   <rect x="71" y="3" width="74" height="32" rx="10"/>
   <rect x="69"
         y="1"
         width="74"
         height="32"
         class="terminal"
         rx="10"/>
   <text class="terminal" x="79" y="21">--server</text>
   <rect x="185" y="3" width="50" height="32" rx="10"/>
   <rect x="183"
         y="1"
         width="50"
         height="32"
         class="terminal"
         rx="10"/>
   <text class="terminal" x="193" y="21">Host</text>
   <rect x="185" y="47" width="84" height="32" rx="10"/>
   <rect x="183"
         y="45"
         width="84"
         height="32"
         class="terminal"
         rx="10"/>
   <text class="terminal" x="193" y="65">Host:Port</text>
   <rect x="185" y="91" width="156" height="32" rx="10"/>
   <rect x="183"
         y="89"
         width="156"
         height="32"
         class="terminal"
         rx="10"/>
   <text class="terminal" x="193" y="109">Host\InstanceName</text>
   <rect x="185" y="135" width="170" height="32" rx="10"/>
   <rect x="183"
         y="133"
         width="170"
         height="32"
         class="terminal"
         rx="10"/>
   <text class="terminal" x="193" y="153">Host:Port/TNSService</text>
   <rect x="415" y="35" width="88" height="32" rx="10"/>
   <rect x="413"
         y="33"
         width="88"
         height="32"
         class="terminal"
         rx="10"/>
   <text class="terminal" x="423" y="53">--provider</text>
   <a xmlns:xlink="http://www.w3.org/1999/xlink"
      xlink:href="#OLEDBProvider"
      xlink:title="OLEDBProvider">
      <rect x="523" y="35" width="114" height="32"/>
      <rect x="521" y="33" width="114" height="32" class="nonterminal"/>
      <text class="nonterminal" x="531" y="53">OLEDBProvider</text>
   </a>
   <rect x="71" y="179" width="56" height="32" rx="10"/>
   <rect x="69"
         y="177"
         width="56"
         height="32"
         class="terminal"
         rx="10"/>
   <text class="terminal" x="79" y="197">--dsn</text>
   <a xmlns:xlink="http://www.w3.org/1999/xlink"
      xlink:href="#DSNName"
      xlink:title="DSNName">
      <rect x="147" y="179" width="82" height="32"/>
      <rect x="145" y="177" width="82" height="32" class="nonterminal"/>
      <text class="nonterminal" x="155" y="197">DSNName</text>
   </a>
   <rect x="717" y="3" width="80" height="32" rx="10"/>
   <rect x="715"
         y="1"
         width="80"
         height="32"
         class="terminal"
         rx="10"/>
   <text class="terminal" x="725" y="21">--trusted</text>
   <rect x="717" y="47" width="62" height="32" rx="10"/>
   <rect x="715"
         y="45"
         width="62"
         height="32"
         class="terminal"
         rx="10"/>
   <text class="terminal" x="725" y="65">--user</text>
   <rect x="799" y="47" width="88" height="32" rx="10"/>
   <rect x="797"
         y="45"
         width="88"
         height="32"
         class="terminal"
         rx="10"/>
   <text class="terminal" x="807" y="65">Username</text>
   <rect x="907" y="47" width="96" height="32" rx="10"/>
   <rect x="905"
         y="45"
         width="96"
         height="32"
         class="terminal"
         rx="10"/>
   <text class="terminal" x="915" y="65">--password</text>
   <rect x="1023" y="47" width="86" height="32" rx="10"/>
   <rect x="1021"
         y="45"
         width="86"
         height="32"
         class="terminal"
         rx="10"/>
   <text class="terminal" x="1031" y="65">Password</text>
   <rect x="1149" y="3" width="92" height="32" rx="10"/>
   <rect x="1147"
         y="1"
         width="92"
         height="32"
         class="terminal"
         rx="10"/>
   <text class="terminal" x="1157" y="21">--database</text>
   <rect x="1261" y="3" width="122" height="32" rx="10"/>
   <rect x="1259"
         y="1"
         width="122"
         height="32"
         class="terminal"
         rx="10"/>
   <text class="terminal" x="1269" y="21">DatabaseName</text>
   <rect x="51" y="223" width="144" height="32" rx="10"/>
   <rect x="49"
         y="221"
         width="144"
         height="32"
         class="terminal"
         rx="10"/>
   <text class="terminal" x="59" y="241">--connectionstring</text>
   <rect x="215" y="223" width="116" height="32" rx="10"/>
   <rect x="213"
         y="221"
         width="116"
         height="32"
         class="terminal"
         rx="10"/>
   <text class="terminal" x="223" y="241">ConnectString</text>
   <path class="line"
         d="m17 17 h2 m40 0 h10 m74 0 h10 m20 0 h10 m50 0 h10 m0 0 h120 m-210 0 h20 m190 0 h20 m-230 0 q10 0 10 10 m210 0 q0 -10 10 -10 m-220 10 v24 m210 0 v-24 m-210 24 q0 10 10 10 m190 0 q10 0 10 -10 m-200 10 h10 m84 0 h10 m0 0 h86 m-200 -10 v20 m210 0 v-20 m-210 20 v24 m210 0 v-24 m-210 24 q0 10 10 10 m190 0 q10 0 10 -10 m-200 10 h10 m156 0 h10 m0 0 h14 m-200 -10 v20 m210 0 v-20 m-210 20 v24 m210 0 v-24 m-210 24 q0 10 10 10 m190 0 q10 0 10 -10 m-200 10 h10 m170 0 h10 m40 -132 h10 m0 0 h232 m-262 0 h20 m242 0 h20 m-282 0 q10 0 10 10 m262 0 q0 -10 10 -10 m-272 10 v12 m262 0 v-12 m-262 12 q0 10 10 10 m242 0 q10 0 10 -10 m-252 10 h10 m88 0 h10 m0 0 h10 m114 0 h10 m-606 -32 h20 m606 0 h20 m-646 0 q10 0 10 10 m626 0 q0 -10 10 -10 m-636 10 v156 m626 0 v-156 m-626 156 q0 10 10 10 m606 0 q10 0 10 -10 m-616 10 h10 m56 0 h10 m0 0 h10 m82 0 h10 m0 0 h428 m40 -176 h10 m80 0 h10 m0 0 h312 m-432 0 h20 m412 0 h20 m-452 0 q10 0 10 10 m432 0 q0 -10 10 -10 m-442 10 v24 m432 0 v-24 m-432 24 q0 10 10 10 m412 0 q10 0 10 -10 m-422 10 h10 m62 0 h10 m0 0 h10 m88 0 h10 m0 0 h10 m96 0 h10 m0 0 h10 m86 0 h10 m20 -44 h10 m92 0 h10 m0 0 h10 m122 0 h10 m-1372 0 h20 m1352 0 h20 m-1392 0 q10 0 10 10 m1372 0 q0 -10 10 -10 m-1382 10 v200 m1372 0 v-200 m-1372 200 q0 10 10 10 m1352 0 q10 0 10 -10 m-1362 10 h10 m144 0 h10 m0 0 h10 m116 0 h10 m0 0 h1052 m23 -220 h-3"/>
   <polygon points="1421 17 1429 13 1429 21"/>
   <polygon points="1421 17 1413 13 1413 21"/>
</svg>
