<?xml version="1.0" encoding="UTF-8"?>
<svg xmlns="http://www.w3.org/2000/svg" width="1013" height="395">
   <defs>
      <style type="text/css">
    @namespace "http://www.w3.org/2000/svg";
    .line                 {fill: none; stroke: #181818; stroke-width: 1;}
    .bold-line            {stroke: #F0F0F0; shape-rendering: crispEdges; stroke-width: 2;}
    .thin-line            {stroke: #F0F0F0; shape-rendering: crispEdges}
    .filled               {fill: #181818; stroke: none;}
    text.terminal         {font-family: Verdana, Sans-serif;
                            font-size: 12px;
                            fill: #F0F0F0;
                            font-weight: bold;
                          }
    text.nonterminal      {font-family: Verdana, Sans-serif;
                            font-size: 12px;
                            fill: #F0F0F0;
                            font-weight: normal;
                          }
    text.regexp           {font-family: Verdana, Sans-serif;
                            font-size: 12px;
                            fill: #F0F0F0;
                            font-weight: normal;
                          }
    rect, circle, polygon {fill: #181818; stroke: #181818;}
    rect.terminal         {fill: #444444; stroke: #181818; stroke-width: 1;}
    rect.nonterminal      {fill: #555555; stroke: #181818; stroke-width: 1;}
    rect.text             {fill: none; stroke: none;}
    polygon.regexp        {fill: #5D5D5D; stroke: #181818; stroke-width: 1;}
  </style>
   </defs>
   <polygon points="9 17 1 13 1 21"/>
   <polygon points="17 17 9 13 9 21"/>
   <rect x="31" y="3" width="134" height="32" rx="10"/>
   <rect x="29"
         y="1"
         width="134"
         height="32"
         class="terminal"
         rx="10"/>
   <text class="terminal" x="39" y="21">--connectiontype</text>
   <a xmlns:xlink="http://www.w3.org/1999/xlink"
      xlink:href="#ConnectionType"
      xlink:title="ConnectionType">
      <rect x="185" y="3" width="122" height="32"/>
      <rect x="183" y="1" width="122" height="32" class="nonterminal"/>
      <text class="nonterminal" x="193" y="21">ConnectionType</text>
   </a>
   <a xmlns:xlink="http://www.w3.org/1999/xlink"
      xlink:href="#ConnectionParameters"
      xlink:title="ConnectionParameters">
      <rect x="327" y="3" width="164" height="32"/>
      <rect x="325" y="1" width="164" height="32" class="nonterminal"/>
      <text class="nonterminal" x="335" y="21">ConnectionParameters</text>
   </a>
   <a xmlns:xlink="http://www.w3.org/1999/xlink"
      xlink:href="#SourceInfos"
      xlink:title="SourceInfos">
      <rect x="511" y="3" width="96" height="32"/>
      <rect x="509" y="1" width="96" height="32" class="nonterminal"/>
      <text class="nonterminal" x="519" y="21">SourceInfos</text>
   </a>
   <a xmlns:xlink="http://www.w3.org/1999/xlink"
      xlink:href="#OutputInfoCSV"
      xlink:title="OutputInfoCSV">
      <rect x="647" y="3" width="114" height="32"/>
      <rect x="645" y="1" width="114" height="32" class="nonterminal"/>
      <text class="nonterminal" x="655" y="21">OutputInfoCSV</text>
   </a>
   <a xmlns:xlink="http://www.w3.org/1999/xlink"
      xlink:href="#FormatCSVOptions"
      xlink:title="FormatCSVOptions">
      <rect x="801" y="35" width="138" height="32"/>
      <rect x="799" y="33" width="138" height="32" class="nonterminal"/>
      <text class="nonterminal" x="809" y="53">FormatCSVOptions</text>
   </a>
   <a xmlns:xlink="http://www.w3.org/1999/xlink"
      xlink:href="#OutputInfoJSON"
      xlink:title="OutputInfoJSON">
      <rect x="647" y="79" width="120" height="32"/>
      <rect x="645" y="77" width="120" height="32" class="nonterminal"/>
      <text class="nonterminal" x="655" y="97">OutputInfoJSON</text>
   </a>
   <a xmlns:xlink="http://www.w3.org/1999/xlink"
      xlink:href="#FormatJSONOptions"
      xlink:title="FormatJSONOptions">
      <rect x="807" y="111" width="144" height="32"/>
      <rect x="805" y="109" width="144" height="32" class="nonterminal"/>
      <text class="nonterminal" x="815" y="129">FormatJSONOptions</text>
   </a>
   <a xmlns:xlink="http://www.w3.org/1999/xlink"
      xlink:href="#OutputInfoXLSX"
      xlink:title="OutputInfoXLSX">
      <rect x="647" y="155" width="120" height="32"/>
      <rect x="645" y="153" width="120" height="32" class="nonterminal"/>
      <text class="nonterminal" x="655" y="173">OutputInfoXLSX</text>
   </a>
   <a xmlns:xlink="http://www.w3.org/1999/xlink"
      xlink:href="#FormatXLSXOptions"
      xlink:title="FormatXLSXOptions">
      <rect x="807" y="187" width="144" height="32"/>
      <rect x="805" y="185" width="144" height="32" class="nonterminal"/>
      <text class="nonterminal" x="815" y="205">FormatXLSXOptions</text>
   </a>
   <a xmlns:xlink="http://www.w3.org/1999/xlink"
      xlink:href="#OutputInfoParquet"
      xlink:title="OutputInfoParquet">
      <rect x="647" y="231" width="138" height="32"/>
      <rect x="645" y="229" width="138" height="32" class="nonterminal"/>
      <text class="nonterminal" x="655" y="249">OutputInfoParquet</text>
   </a>
   <a xmlns:xlink="http://www.w3.org/1999/xlink"
      xlink:href="#OutputInfoBinary"
      xlink:title="OutputInfoBinary">
      <rect x="647" y="275" width="128" height="32"/>
      <rect x="645" y="273" width="128" height="32" class="nonterminal"/>
      <text class="nonterminal" x="655" y="293">OutputInfoBinary</text>
   </a>
   <a xmlns:xlink="http://www.w3.org/1999/xlink"
      xlink:href="#AdvancedParameters"
      xlink:title="AdvancedParameters">
      <rect x="635" y="361" width="154" height="32"/>
      <rect x="633" y="359" width="154" height="32" class="nonterminal"/>
      <text class="nonterminal" x="643" y="379">AdvancedParameters</text>
   </a>
   <a xmlns:xlink="http://www.w3.org/1999/xlink"
      xlink:href="#LogParameters"
      xlink:title="LogParameters">
      <rect x="849" y="361" width="116" height="32"/>
      <rect x="847" y="359" width="116" height="32" class="nonterminal"/>
      <text class="nonterminal" x="857" y="379">LogParameters</text>
   </a>
   <path class="line"
         d="m17 17 h2 m0 0 h10 m134 0 h10 m0 0 h10 m122 0 h10 m0 0 h10 m164 0 h10 m0 0 h10 m96 0 h10 m20 0 h10 m114 0 h10 m20 0 h10 m0 0 h148 m-178 0 h20 m158 0 h20 m-198 0 q10 0 10 10 m178 0 q0 -10 10 -10 m-188 10 v12 m178 0 v-12 m-178 12 q0 10 10 10 m158 0 q10 0 10 -10 m-168 10 h10 m138 0 h10 m20 -32 h12 m-364 0 h20 m344 0 h20 m-384 0 q10 0 10 10 m364 0 q0 -10 10 -10 m-374 10 v56 m364 0 v-56 m-364 56 q0 10 10 10 m344 0 q10 0 10 -10 m-354 10 h10 m120 0 h10 m20 0 h10 m0 0 h154 m-184 0 h20 m164 0 h20 m-204 0 q10 0 10 10 m184 0 q0 -10 10 -10 m-194 10 v12 m184 0 v-12 m-184 12 q0 10 10 10 m164 0 q10 0 10 -10 m-174 10 h10 m144 0 h10 m-334 -42 v20 m364 0 v-20 m-364 20 v56 m364 0 v-56 m-364 56 q0 10 10 10 m344 0 q10 0 10 -10 m-354 10 h10 m120 0 h10 m20 0 h10 m0 0 h154 m-184 0 h20 m164 0 h20 m-204 0 q10 0 10 10 m184 0 q0 -10 10 -10 m-194 10 v12 m184 0 v-12 m-184 12 q0 10 10 10 m164 0 q10 0 10 -10 m-174 10 h10 m144 0 h10 m-334 -42 v20 m364 0 v-20 m-364 20 v56 m364 0 v-56 m-364 56 q0 10 10 10 m344 0 q10 0 10 -10 m-354 10 h10 m138 0 h10 m0 0 h186 m-354 -10 v20 m364 0 v-20 m-364 20 v24 m364 0 v-24 m-364 24 q0 10 10 10 m344 0 q10 0 10 -10 m-354 10 h10 m128 0 h10 m0 0 h196 m22 -272 l2 0 m2 0 l2 0 m2 0 l2 0 m-420 326 l2 0 m2 0 l2 0 m2 0 l2 0 m22 0 h10 m0 0 h164 m-194 0 h20 m174 0 h20 m-214 0 q10 0 10 10 m194 0 q0 -10 10 -10 m-204 10 v12 m194 0 v-12 m-194 12 q0 10 10 10 m174 0 q10 0 10 -10 m-184 10 h10 m154 0 h10 m40 -32 h10 m0 0 h126 m-156 0 h20 m136 0 h20 m-176 0 q10 0 10 10 m156 0 q0 -10 10 -10 m-166 10 v12 m156 0 v-12 m-156 12 q0 10 10 10 m136 0 q10 0 10 -10 m-146 10 h10 m116 0 h10 m23 -32 h-3"/>
   <polygon points="1003 343 1011 339 1011 347"/>
   <polygon points="1003 343 995 339 995 347"/>
</svg>
