<?xml version="1.0" encoding="UTF-8"?>
<svg xmlns="http://www.w3.org/2000/svg" width="913" height="275">
   <defs>
      <style type="text/css">
    @namespace "http://www.w3.org/2000/svg";
    .line                 {fill: none; stroke: #181818; stroke-width: 1;}
    .bold-line            {stroke: #F0F0F0; shape-rendering: crispEdges; stroke-width: 2;}
    .thin-line            {stroke: #F0F0F0; shape-rendering: crispEdges}
    .filled               {fill: #181818; stroke: none;}
    text.terminal         {font-family: Verdana, Sans-serif;
                            font-size: 12px;
                            fill: #F0F0F0;
                            font-weight: bold;
                          }
    text.nonterminal      {font-family: Verdana, Sans-serif;
                            font-size: 12px;
                            fill: #F0F0F0;
                            font-weight: normal;
                          }
    text.regexp           {font-family: Verdana, Sans-serif;
                            font-size: 12px;
                            fill: #F0F0F0;
                            font-weight: normal;
                          }
    rect, circle, polygon {fill: #181818; stroke: #181818;}
    rect.terminal         {fill: #333333; stroke: #181818; stroke-width: 1;}
    rect.nonterminal      {fill: #404040; stroke: #181818; stroke-width: 1;}
    rect.text             {fill: none; stroke: none;}
    polygon.regexp        {fill: #464646; stroke: #181818; stroke-width: 1;}
  </style>
   </defs>
   <polygon points="9 5 1 1 1 9"/>
   <polygon points="17 5 9 1 9 9"/>
   <rect x="51" y="23" width="92" height="32" rx="10"/>
   <rect x="49"
         y="21"
         width="92"
         height="32"
         class="terminal"
         rx="10"/>
   <text class="terminal" x="59" y="41">--delimiter</text>
   <a xmlns:xlink="http://www.w3.org/1999/xlink"
      xlink:href="#Delimiter"
      xlink:title="Delimiter">
      <rect x="163" y="23" width="76" height="32"/>
      <rect x="161" y="21" width="76" height="32" class="nonterminal"/>
      <text class="nonterminal" x="171" y="41">Delimiter</text>
   </a>
   <rect x="299" y="23" width="106" height="32" rx="10"/>
   <rect x="297"
         y="21"
         width="106"
         height="32"
         class="terminal"
         rx="10"/>
   <text class="terminal" x="307" y="41">--dateformat</text>
   <a xmlns:xlink="http://www.w3.org/1999/xlink"
      xlink:href="#DateFormat"
      xlink:title="DateFormat">
      <rect x="425" y="23" width="94" height="32"/>
      <rect x="423" y="21" width="94" height="32" class="nonterminal"/>
      <text class="nonterminal" x="433" y="41">DateFormat</text>
   </a>
   <rect x="579" y="23" width="148" height="32" rx="10"/>
   <rect x="577"
         y="21"
         width="148"
         height="32"
         class="terminal"
         rx="10"/>
   <text class="terminal" x="587" y="41">--decimalseparator</text>
   <a xmlns:xlink="http://www.w3.org/1999/xlink"
      xlink:href="#DecimalSeprator"
      xlink:title="DecimalSeprator">
      <rect x="747" y="23" width="124" height="32"/>
      <rect x="745" y="21" width="124" height="32" class="nonterminal"/>
      <text class="nonterminal" x="755" y="41">DecimalSeprator</text>
   </a>
   <rect x="205" y="109" width="78" height="32" rx="10"/>
   <rect x="203"
         y="107"
         width="78"
         height="32"
         class="terminal"
         rx="10"/>
   <text class="terminal" x="213" y="127">--quotes</text>
   <rect x="323" y="109" width="48" height="32" rx="10"/>
   <rect x="321"
         y="107"
         width="48"
         height="32"
         class="terminal"
         rx="10"/>
   <text class="terminal" x="331" y="127">true</text>
   <rect x="323" y="153" width="52" height="32" rx="10"/>
   <rect x="321"
         y="151"
         width="52"
         height="32"
         class="terminal"
         rx="10"/>
   <text class="terminal" x="331" y="171">false</text>
   <rect x="455" y="109" width="96" height="32" rx="10"/>
   <rect x="453"
         y="107"
         width="96"
         height="32"
         class="terminal"
         rx="10"/>
   <text class="terminal" x="463" y="127">--noheader</text>
   <rect x="611" y="109" width="106" height="32" rx="10"/>
   <rect x="609"
         y="107"
         width="106"
         height="32"
         class="terminal"
         rx="10"/>
   <text class="terminal" x="619" y="127">--boolformat</text>
   <rect x="757" y="109" width="86" height="32" rx="10"/>
   <rect x="755"
         y="107"
         width="86"
         height="32"
         class="terminal"
         rx="10"/>
   <text class="terminal" x="765" y="127">automatic</text>
   <rect x="757" y="153" width="46" height="32" rx="10"/>
   <rect x="755"
         y="151"
         width="46"
         height="32"
         class="terminal"
         rx="10"/>
   <text class="terminal" x="765" y="171">1/0</text>
   <rect x="757" y="197" width="88" height="32" rx="10"/>
   <rect x="755"
         y="195"
         width="88"
         height="32"
         class="terminal"
         rx="10"/>
   <text class="terminal" x="765" y="215">true/false</text>
   <rect x="757" y="241" width="38" height="32" rx="10"/>
   <rect x="755"
         y="239"
         width="38"
         height="32"
         class="terminal"
         rx="10"/>
   <text class="terminal" x="765" y="259">t/f</text>
   <path class="line"
         d="m17 5 h2 m20 0 h10 m0 0 h198 m-228 0 h20 m208 0 h20 m-248 0 q10 0 10 10 m228 0 q0 -10 10 -10 m-238 10 v12 m228 0 v-12 m-228 12 q0 10 10 10 m208 0 q10 0 10 -10 m-218 10 h10 m92 0 h10 m0 0 h10 m76 0 h10 m40 -32 h10 m0 0 h230 m-260 0 h20 m240 0 h20 m-280 0 q10 0 10 10 m260 0 q0 -10 10 -10 m-270 10 v12 m260 0 v-12 m-260 12 q0 10 10 10 m240 0 q10 0 10 -10 m-250 10 h10 m106 0 h10 m0 0 h10 m94 0 h10 m40 -32 h10 m0 0 h302 m-332 0 h20 m312 0 h20 m-352 0 q10 0 10 10 m332 0 q0 -10 10 -10 m-342 10 v12 m332 0 v-12 m-332 12 q0 10 10 10 m312 0 q10 0 10 -10 m-322 10 h10 m148 0 h10 m0 0 h10 m124 0 h10 m22 -32 l2 0 m2 0 l2 0 m2 0 l2 0 m-750 86 l2 0 m2 0 l2 0 m2 0 l2 0 m22 0 h10 m0 0 h200 m-230 0 h20 m210 0 h20 m-250 0 q10 0 10 10 m230 0 q0 -10 10 -10 m-240 10 v12 m230 0 v-12 m-230 12 q0 10 10 10 m210 0 q10 0 10 -10 m-220 10 h10 m78 0 h10 m20 0 h10 m48 0 h10 m0 0 h4 m-92 0 h20 m72 0 h20 m-112 0 q10 0 10 10 m92 0 q0 -10 10 -10 m-102 10 v24 m92 0 v-24 m-92 24 q0 10 10 10 m72 0 q10 0 10 -10 m-82 10 h10 m52 0 h10 m60 -76 h10 m0 0 h106 m-136 0 h20 m116 0 h20 m-156 0 q10 0 10 10 m136 0 q0 -10 10 -10 m-146 10 v12 m136 0 v-12 m-136 12 q0 10 10 10 m116 0 q10 0 10 -10 m-126 10 h10 m96 0 h10 m40 -32 h10 m0 0 h264 m-294 0 h20 m274 0 h20 m-314 0 q10 0 10 10 m294 0 q0 -10 10 -10 m-304 10 v12 m294 0 v-12 m-294 12 q0 10 10 10 m274 0 q10 0 10 -10 m-284 10 h10 m106 0 h10 m20 0 h10 m86 0 h10 m0 0 h2 m-128 0 h20 m108 0 h20 m-148 0 q10 0 10 10 m128 0 q0 -10 10 -10 m-138 10 v24 m128 0 v-24 m-128 24 q0 10 10 10 m108 0 q10 0 10 -10 m-118 10 h10 m46 0 h10 m0 0 h42 m-118 -10 v20 m128 0 v-20 m-128 20 v24 m128 0 v-24 m-128 24 q0 10 10 10 m108 0 q10 0 10 -10 m-118 10 h10 m88 0 h10 m-118 -10 v20 m128 0 v-20 m-128 20 v24 m128 0 v-24 m-128 24 q0 10 10 10 m108 0 q10 0 10 -10 m-118 10 h10 m38 0 h10 m0 0 h50 m43 -164 h-3"/>
   <polygon points="903 91 911 87 911 95"/>
   <polygon points="903 91 895 87 895 95"/>
</svg>
