<?xml version="1.0" encoding="UTF-8"?>
<svg xmlns="http://www.w3.org/2000/svg" width="439" height="57">
   <defs>
      <style type="text/css">
    @namespace "http://www.w3.org/2000/svg";
    .line                 {fill: none; stroke: #181818; stroke-width: 1;}
    .bold-line            {stroke: #F0F0F0; shape-rendering: crispEdges; stroke-width: 2;}
    .thin-line            {stroke: #F0F0F0; shape-rendering: crispEdges}
    .filled               {fill: #181818; stroke: none;}
    text.terminal         {font-family: Verdana, Sans-serif;
                            font-size: 12px;
                            fill: #F0F0F0;
                            font-weight: bold;
                          }
    text.nonterminal      {font-family: Verdana, Sans-serif;
                            font-size: 12px;
                            fill: #F0F0F0;
                            font-weight: normal;
                          }
    text.regexp           {font-family: Verdana, Sans-serif;
                            font-size: 12px;
                            fill: #F0F0F0;
                            font-weight: normal;
                          }
    rect, circle, polygon {fill: #181818; stroke: #181818;}
    rect.terminal         {fill: #333333; stroke: #181818; stroke-width: 1;}
    rect.nonterminal      {fill: #404040; stroke: #181818; stroke-width: 1;}
    rect.text             {fill: none; stroke: none;}
    polygon.regexp        {fill: #464646; stroke: #181818; stroke-width: 1;}
  </style>
   </defs>
   <polygon points="9 5 1 1 1 9"/>
   <polygon points="17 5 9 1 9 9"/>
   <rect x="51" y="23" width="170" height="32" rx="10"/>
   <rect x="49"
         y="21"
         width="170"
         height="32"
         class="terminal"
         rx="10"/>
   <text class="terminal" x="59" y="41">--parquetcompression</text>
   <a xmlns:xlink="http://www.w3.org/1999/xlink"
      xlink:href="#CompressionMethod"
      xlink:title="CompressionMethod">
      <rect x="241" y="23" width="150" height="32"/>
      <rect x="239" y="21" width="150" height="32" class="nonterminal"/>
      <text class="nonterminal" x="249" y="41">CompressionMethod</text>
   </a>
   <path class="line"
         d="m17 5 h2 m20 0 h10 m0 0 h350 m-380 0 h20 m360 0 h20 m-400 0 q10 0 10 10 m380 0 q0 -10 10 -10 m-390 10 v12 m380 0 v-12 m-380 12 q0 10 10 10 m360 0 q10 0 10 -10 m-370 10 h10 m170 0 h10 m0 0 h10 m150 0 h10 m23 -32 h-3"/>
   <polygon points="429 5 437 1 437 9"/>
   <polygon points="429 5 421 1 421 9"/>
</svg>
