<?xml version="1.0" encoding="UTF-8"?>
<svg xmlns="http://www.w3.org/2000/svg" width="671" height="57">
   <defs>
      <style type="text/css">
    @namespace "http://www.w3.org/2000/svg";
    .line                 {fill: none; stroke: #181818; stroke-width: 1;}
    .bold-line            {stroke: #F0F0F0; shape-rendering: crispEdges; stroke-width: 2;}
    .thin-line            {stroke: #F0F0F0; shape-rendering: crispEdges}
    .filled               {fill: #181818; stroke: none;}
    text.terminal         {font-family: Verdana, Sans-serif;
                            font-size: 12px;
                            fill: #F0F0F0;
                            font-weight: bold;
                          }
    text.nonterminal      {font-family: Verdana, Sans-serif;
                            font-size: 12px;
                            fill: #F0F0F0;
                            font-weight: normal;
                          }
    text.regexp           {font-family: Verdana, Sans-serif;
                            font-size: 12px;
                            fill: #F0F0F0;
                            font-weight: normal;
                          }
    rect, circle, polygon {fill: #181818; stroke: #181818;}
    rect.terminal         {fill: #333333; stroke: #181818; stroke-width: 1;}
    rect.nonterminal      {fill: #404040; stroke: #181818; stroke-width: 1;}
    rect.text             {fill: none; stroke: none;}
    polygon.regexp        {fill: #464646; stroke: #181818; stroke-width: 1;}
  </style>
   </defs>
   <polygon points="9 5 1 1 1 9"/>
   <polygon points="17 5 9 1 9 9"/>
   <rect x="51" y="23" width="106" height="32" rx="10"/>
   <rect x="49"
         y="21"
         width="106"
         height="32"
         class="terminal"
         rx="10"/>
   <text class="terminal" x="59" y="41">--dateformat</text>
   <a xmlns:xlink="http://www.w3.org/1999/xlink"
      xlink:href="#DateFormat"
      xlink:title="DateFormat">
      <rect x="177" y="23" width="94" height="32"/>
      <rect x="175" y="21" width="94" height="32" class="nonterminal"/>
      <text class="nonterminal" x="185" y="41">DateFormat</text>
   </a>
   <rect x="331" y="23" width="148" height="32" rx="10"/>
   <rect x="329"
         y="21"
         width="148"
         height="32"
         class="terminal"
         rx="10"/>
   <text class="terminal" x="339" y="41">--decimalseparator</text>
   <a xmlns:xlink="http://www.w3.org/1999/xlink"
      xlink:href="#DecimalSeprator"
      xlink:title="DecimalSeprator">
      <rect x="499" y="23" width="124" height="32"/>
      <rect x="497" y="21" width="124" height="32" class="nonterminal"/>
      <text class="nonterminal" x="507" y="41">DecimalSeprator</text>
   </a>
   <path class="line"
         d="m17 5 h2 m20 0 h10 m0 0 h230 m-260 0 h20 m240 0 h20 m-280 0 q10 0 10 10 m260 0 q0 -10 10 -10 m-270 10 v12 m260 0 v-12 m-260 12 q0 10 10 10 m240 0 q10 0 10 -10 m-250 10 h10 m106 0 h10 m0 0 h10 m94 0 h10 m40 -32 h10 m0 0 h302 m-332 0 h20 m312 0 h20 m-352 0 q10 0 10 10 m332 0 q0 -10 10 -10 m-342 10 v12 m332 0 v-12 m-332 12 q0 10 10 10 m312 0 q10 0 10 -10 m-322 10 h10 m148 0 h10 m0 0 h10 m124 0 h10 m23 -32 h-3"/>
   <polygon points="661 5 669 1 669 9"/>
   <polygon points="661 5 653 1 653 9"/>
</svg>
