<?xml version="1.0" encoding="UTF-8"?>
<svg xmlns="http://www.w3.org/2000/svg" width="1001" height="81">
   <defs>
      <style type="text/css">
    @namespace "http://www.w3.org/2000/svg";
    .line                 {fill: none; stroke: #181818; stroke-width: 1;}
    .bold-line            {stroke: #F0F0F0; shape-rendering: crispEdges; stroke-width: 2;}
    .thin-line            {stroke: #F0F0F0; shape-rendering: crispEdges}
    .filled               {fill: #181818; stroke: none;}
    text.terminal         {font-family: Verdana, Sans-serif;
                            font-size: 12px;
                            fill: #F0F0F0;
                            font-weight: bold;
                          }
    text.nonterminal      {font-family: Verdana, Sans-serif;
                            font-size: 12px;
                            fill: #F0F0F0;
                            font-weight: normal;
                          }
    text.regexp           {font-family: Verdana, Sans-serif;
                            font-size: 12px;
                            fill: #F0F0F0;
                            font-weight: normal;
                          }
    rect, circle, polygon {fill: #181818; stroke: #181818;}
    rect.terminal         {fill: #444444; stroke: #181818; stroke-width: 1;}
    rect.nonterminal      {fill: #555555; stroke: #181818; stroke-width: 1;}
    rect.text             {fill: none; stroke: none;}
    polygon.regexp        {fill: #5D5D5D; stroke: #181818; stroke-width: 1;}
  </style>
   </defs>
   <polygon points="9 17 1 13 1 21"/>
   <polygon points="17 17 9 13 9 21"/>
   <rect x="31" y="3" width="98" height="32" rx="10"/>
   <rect x="29"
         y="1"
         width="98"
         height="32"
         class="terminal"
         rx="10"/>
   <text class="terminal" x="39" y="21">--fileoutput</text>
   <a xmlns:xlink="http://www.w3.org/1999/xlink"
      xlink:href="#FileName.csv"
      xlink:title="FileName.csv">
      <rect x="169" y="3" width="102" height="32"/>
      <rect x="167" y="1" width="102" height="32" class="nonterminal"/>
      <text class="nonterminal" x="177" y="21">FileName.csv</text>
   </a>
   <a xmlns:xlink="http://www.w3.org/1999/xlink"
      xlink:href="#FileName.tsv"
      xlink:title="FileName.tsv">
      <rect x="169" y="47" width="102" height="32"/>
      <rect x="167" y="45" width="102" height="32" class="nonterminal"/>
      <text class="nonterminal" x="177" y="65">FileName.tsv</text>
   </a>
   <rect x="311" y="3" width="92" height="32" rx="10"/>
   <rect x="309"
         y="1"
         width="92"
         height="32"
         class="terminal"
         rx="10"/>
   <text class="terminal" x="319" y="21">--directory</text>
   <a xmlns:xlink="http://www.w3.org/1999/xlink"
      xlink:href="#OutputDirectory"
      xlink:title="OutputDirectory">
      <rect x="423" y="3" width="120" height="32"/>
      <rect x="421" y="1" width="120" height="32" class="nonterminal"/>
      <text class="nonterminal" x="431" y="21">OutputDirectory</text>
   </a>
   <rect x="583" y="35" width="120" height="32" rx="10"/>
   <rect x="581"
         y="33"
         width="120"
         height="32"
         class="terminal"
         rx="10"/>
   <text class="terminal" x="591" y="53">--timestamped</text>
   <rect x="763" y="35" width="92" height="32" rx="10"/>
   <rect x="761"
         y="33"
         width="92"
         height="32"
         class="terminal"
         rx="10"/>
   <text class="terminal" x="771" y="53">--encoding</text>
   <a xmlns:xlink="http://www.w3.org/1999/xlink"
      xlink:href="#Encoding"
      xlink:title="Encoding">
      <rect x="875" y="35" width="78" height="32"/>
      <rect x="873" y="33" width="78" height="32" class="nonterminal"/>
      <text class="nonterminal" x="883" y="53">Encoding</text>
   </a>
   <path class="line"
         d="m17 17 h2 m0 0 h10 m98 0 h10 m20 0 h10 m102 0 h10 m-142 0 h20 m122 0 h20 m-162 0 q10 0 10 10 m142 0 q0 -10 10 -10 m-152 10 v24 m142 0 v-24 m-142 24 q0 10 10 10 m122 0 q10 0 10 -10 m-132 10 h10 m102 0 h10 m20 -44 h10 m92 0 h10 m0 0 h10 m120 0 h10 m20 0 h10 m0 0 h130 m-160 0 h20 m140 0 h20 m-180 0 q10 0 10 10 m160 0 q0 -10 10 -10 m-170 10 v12 m160 0 v-12 m-160 12 q0 10 10 10 m140 0 q10 0 10 -10 m-150 10 h10 m120 0 h10 m40 -32 h10 m0 0 h200 m-230 0 h20 m210 0 h20 m-250 0 q10 0 10 10 m230 0 q0 -10 10 -10 m-240 10 v12 m230 0 v-12 m-230 12 q0 10 10 10 m210 0 q10 0 10 -10 m-220 10 h10 m92 0 h10 m0 0 h10 m78 0 h10 m23 -32 h-3"/>
   <polygon points="991 17 999 13 999 21"/>
   <polygon points="991 17 983 13 983 21"/>
</svg>
