<?xml version="1.0" encoding="UTF-8"?>
<svg xmlns="http://www.w3.org/2000/svg" width="969" height="69">
   <defs>
      <style type="text/css">
    @namespace "http://www.w3.org/2000/svg";
    .line                 {fill: none; stroke: #181818; stroke-width: 1;}
    .bold-line            {stroke: #F0F0F0; shape-rendering: crispEdges; stroke-width: 2;}
    .thin-line            {stroke: #F0F0F0; shape-rendering: crispEdges}
    .filled               {fill: #181818; stroke: none;}
    text.terminal         {font-family: Verdana, Sans-serif;
                            font-size: 12px;
                            fill: #F0F0F0;
                            font-weight: bold;
                          }
    text.nonterminal      {font-family: Verdana, Sans-serif;
                            font-size: 12px;
                            fill: #F0F0F0;
                            font-weight: normal;
                          }
    text.regexp           {font-family: Verdana, Sans-serif;
                            font-size: 12px;
                            fill: #F0F0F0;
                            font-weight: normal;
                          }
    rect, circle, polygon {fill: #181818; stroke: #181818;}
    rect.terminal         {fill: #333333; stroke: #181818; stroke-width: 1;}
    rect.nonterminal      {fill: #404040; stroke: #181818; stroke-width: 1;}
    rect.text             {fill: none; stroke: none;}
    polygon.regexp        {fill: #464646; stroke: #181818; stroke-width: 1;}
  </style>
   </defs>
   <polygon points="9 17 1 13 1 21"/>
   <polygon points="17 17 9 13 9 21"/>
   <rect x="31" y="3" width="98" height="32" rx="10"/>
   <rect x="29"
         y="1"
         width="98"
         height="32"
         class="terminal"
         rx="10"/>
   <text class="terminal" x="39" y="21">--fileoutput</text>
   <a xmlns:xlink="http://www.w3.org/1999/xlink"
      xlink:href="#FileName.json"
      xlink:title="FileName.json">
      <rect x="149" y="3" width="110" height="32"/>
      <rect x="147" y="1" width="110" height="32" class="nonterminal"/>
      <text class="nonterminal" x="157" y="21">FileName.json</text>
   </a>
   <rect x="279" y="3" width="92" height="32" rx="10"/>
   <rect x="277"
         y="1"
         width="92"
         height="32"
         class="terminal"
         rx="10"/>
   <text class="terminal" x="287" y="21">--directory</text>
   <a xmlns:xlink="http://www.w3.org/1999/xlink"
      xlink:href="#OutputDirectory"
      xlink:title="OutputDirectory">
      <rect x="391" y="3" width="120" height="32"/>
      <rect x="389" y="1" width="120" height="32" class="nonterminal"/>
      <text class="nonterminal" x="399" y="21">OutputDirectory</text>
   </a>
   <rect x="551" y="35" width="120" height="32" rx="10"/>
   <rect x="549"
         y="33"
         width="120"
         height="32"
         class="terminal"
         rx="10"/>
   <text class="terminal" x="559" y="53">--timestamped</text>
   <rect x="731" y="35" width="92" height="32" rx="10"/>
   <rect x="729"
         y="33"
         width="92"
         height="32"
         class="terminal"
         rx="10"/>
   <text class="terminal" x="739" y="53">--encoding</text>
   <a xmlns:xlink="http://www.w3.org/1999/xlink"
      xlink:href="#Encoding"
      xlink:title="Encoding">
      <rect x="843" y="35" width="78" height="32"/>
      <rect x="841" y="33" width="78" height="32" class="nonterminal"/>
      <text class="nonterminal" x="851" y="53">Encoding</text>
   </a>
   <path class="line"
         d="m17 17 h2 m0 0 h10 m98 0 h10 m0 0 h10 m110 0 h10 m0 0 h10 m92 0 h10 m0 0 h10 m120 0 h10 m20 0 h10 m0 0 h130 m-160 0 h20 m140 0 h20 m-180 0 q10 0 10 10 m160 0 q0 -10 10 -10 m-170 10 v12 m160 0 v-12 m-160 12 q0 10 10 10 m140 0 q10 0 10 -10 m-150 10 h10 m120 0 h10 m40 -32 h10 m0 0 h200 m-230 0 h20 m210 0 h20 m-250 0 q10 0 10 10 m230 0 q0 -10 10 -10 m-240 10 v12 m230 0 v-12 m-230 12 q0 10 10 10 m210 0 q10 0 10 -10 m-220 10 h10 m92 0 h10 m0 0 h10 m78 0 h10 m23 -32 h-3"/>
   <polygon points="959 17 967 13 967 21"/>
   <polygon points="959 17 951 13 951 21"/>
</svg>
