<?xml version="1.0" encoding="UTF-8"?>
<svg xmlns="http://www.w3.org/2000/svg" width="905" height="125">
   <defs>
      <style type="text/css">
    @namespace "http://www.w3.org/2000/svg";
    .line                 {fill: none; stroke: #181818; stroke-width: 1;}
    .bold-line            {stroke: #F0F0F0; shape-rendering: crispEdges; stroke-width: 2;}
    .thin-line            {stroke: #F0F0F0; shape-rendering: crispEdges}
    .filled               {fill: #181818; stroke: none;}
    text.terminal         {font-family: Verdana, Sans-serif;
                            font-size: 12px;
                            fill: #F0F0F0;
                            font-weight: bold;
                          }
    text.nonterminal      {font-family: Verdana, Sans-serif;
                            font-size: 12px;
                            fill: #F0F0F0;
                            font-weight: normal;
                          }
    text.regexp           {font-family: Verdana, Sans-serif;
                            font-size: 12px;
                            fill: #F0F0F0;
                            font-weight: normal;
                          }
    rect, circle, polygon {fill: #181818; stroke: #181818;}
    rect.terminal         {fill: #444444; stroke: #181818; stroke-width: 1;}
    rect.nonterminal      {fill: #555555; stroke: #181818; stroke-width: 1;}
    rect.text             {fill: none; stroke: none;}
    polygon.regexp        {fill: #5D5D5D; stroke: #181818; stroke-width: 1;}
  </style>
   </defs>
   <polygon points="9 17 1 13 1 21"/>
   <polygon points="17 17 9 13 9 21"/>
   <rect x="51" y="3" width="128" height="32" rx="10"/>
   <rect x="49"
         y="1"
         width="128"
         height="32"
         class="terminal"
         rx="10"/>
   <text class="terminal" x="59" y="21">--sourceschema</text>
   <a xmlns:xlink="http://www.w3.org/1999/xlink"
      xlink:href="#SchemaName"
      xlink:title="SchemaName">
      <rect x="199" y="3" width="106" height="32"/>
      <rect x="197" y="1" width="106" height="32" class="nonterminal"/>
      <text class="nonterminal" x="207" y="21">SchemaName</text>
   </a>
   <rect x="325" y="3" width="110" height="32" rx="10"/>
   <rect x="323"
         y="1"
         width="110"
         height="32"
         class="terminal"
         rx="10"/>
   <text class="terminal" x="333" y="21">--sourcetable</text>
   <a xmlns:xlink="http://www.w3.org/1999/xlink"
      xlink:href="#TableName"
      xlink:title="TableName">
      <rect x="455" y="3" width="90" height="32"/>
      <rect x="453" y="1" width="90" height="32" class="nonterminal"/>
      <text class="nonterminal" x="463" y="21">TableName</text>
   </a>
   <rect x="71" y="47" width="70" height="32" rx="10"/>
   <rect x="69"
         y="45"
         width="70"
         height="32"
         class="terminal"
         rx="10"/>
   <text class="terminal" x="79" y="65">--query</text>
   <a xmlns:xlink="http://www.w3.org/1999/xlink"
      xlink:href="#Query"
      xlink:title="Query">
      <rect x="161" y="47" width="58" height="32"/>
      <rect x="159" y="45" width="58" height="32" class="nonterminal"/>
      <text class="nonterminal" x="169" y="65">Query</text>
   </a>
   <rect x="71" y="91" width="88" height="32" rx="10"/>
   <rect x="69"
         y="89"
         width="88"
         height="32"
         class="terminal"
         rx="10"/>
   <text class="terminal" x="79" y="109">--fileinput</text>
   <a xmlns:xlink="http://www.w3.org/1999/xlink"
      xlink:href="#InputFilePath"
      xlink:title="InputFilePath">
      <rect x="179" y="91" width="104" height="32"/>
      <rect x="177" y="89" width="104" height="32" class="nonterminal"/>
      <text class="nonterminal" x="187" y="109">InputFilePath</text>
   </a>
   <rect x="343" y="79" width="128" height="32" rx="10"/>
   <rect x="341"
         y="77"
         width="128"
         height="32"
         class="terminal"
         rx="10"/>
   <text class="terminal" x="351" y="97">--sourceschema</text>
   <a xmlns:xlink="http://www.w3.org/1999/xlink"
      xlink:href="#SchemaName"
      xlink:title="SchemaName">
      <rect x="491" y="79" width="106" height="32"/>
      <rect x="489" y="77" width="106" height="32" class="nonterminal"/>
      <text class="nonterminal" x="499" y="97">SchemaName</text>
   </a>
   <rect x="617" y="79" width="110" height="32" rx="10"/>
   <rect x="615"
         y="77"
         width="110"
         height="32"
         class="terminal"
         rx="10"/>
   <text class="terminal" x="625" y="97">--sourcetable</text>
   <a xmlns:xlink="http://www.w3.org/1999/xlink"
      xlink:href="#TableName"
      xlink:title="TableName">
      <rect x="747" y="79" width="90" height="32"/>
      <rect x="745" y="77" width="90" height="32" class="nonterminal"/>
      <text class="nonterminal" x="755" y="97">TableName</text>
   </a>
   <path class="line"
         d="m17 17 h2 m20 0 h10 m128 0 h10 m0 0 h10 m106 0 h10 m0 0 h10 m110 0 h10 m0 0 h10 m90 0 h10 m0 0 h312 m-846 0 h20 m826 0 h20 m-866 0 q10 0 10 10 m846 0 q0 -10 10 -10 m-856 10 v24 m846 0 v-24 m-846 24 q0 10 10 10 m826 0 q10 0 10 -10 m-816 10 h10 m70 0 h10 m0 0 h10 m58 0 h10 m0 0 h64 m-252 0 h20 m232 0 h20 m-272 0 q10 0 10 10 m252 0 q0 -10 10 -10 m-262 10 v24 m252 0 v-24 m-252 24 q0 10 10 10 m232 0 q10 0 10 -10 m-242 10 h10 m88 0 h10 m0 0 h10 m104 0 h10 m40 -44 h10 m0 0 h504 m-534 0 h20 m514 0 h20 m-554 0 q10 0 10 10 m534 0 q0 -10 10 -10 m-544 10 v12 m534 0 v-12 m-534 12 q0 10 10 10 m514 0 q10 0 10 -10 m-524 10 h10 m128 0 h10 m0 0 h10 m106 0 h10 m0 0 h10 m110 0 h10 m0 0 h10 m90 0 h10 m43 -76 h-3"/>
   <polygon points="895 17 903 13 903 21"/>
   <polygon points="895 17 887 13 887 21"/>
</svg>
