<?xml version="1.0" encoding="UTF-8"?>
<svg xmlns="http://www.w3.org/2000/svg" width="1011" height="367">
   <defs>
      <style type="text/css">
    @namespace "http://www.w3.org/2000/svg";
    .line                 {fill: none; stroke: #171717; stroke-width: 1;}
    .bold-line            {stroke: #F0F0F0; shape-rendering: crispEdges; stroke-width: 2;}
    .thin-line            {stroke: #F0F0F0; shape-rendering: crispEdges}
    .filled               {fill: #171717; stroke: none;}
    text.terminal         {font-family: Verdana, Sans-serif;
                            font-size: 12px;
                            fill: #F0F0F0;
                            font-weight: bold;
                          }
    text.nonterminal      {font-family: Verdana, Sans-serif;
                            font-size: 12px;
                            fill: #F0F0F0;
                            font-weight: normal;
                          }
    text.regexp           {font-family: Verdana, Sans-serif;
                            font-size: 12px;
                            fill: #F0F0F0;
                            font-weight: normal;
                          }
    rect, circle, polygon {fill: #171717; stroke: #171717;}
    rect.terminal         {fill: #222222; stroke: #171717; stroke-width: 1;}
    rect.nonterminal      {fill: #2A2A2A; stroke: #171717; stroke-width: 1;}
    rect.text             {fill: none; stroke: none;}
    polygon.regexp        {fill: #2F2F2F; stroke: #171717; stroke-width: 1;}
  </style>
   </defs>
   <polygon points="11 17 3 13 3 21"/>
   <polygon points="19 17 11 13 11 21"/>
   <rect x="33" y="3" width="82" height="32" rx="10"/>
   <rect x="31"
         y="1"
         width="82"
         height="32"
         class="terminal"
         rx="10"/>
   <text class="terminal" x="41" y="21">--method</text>
   <rect x="45" y="69" width="54" height="32" rx="10"/>
   <rect x="43"
         y="67"
         width="54"
         height="32"
         class="terminal"
         rx="10"/>
   <text class="terminal" x="53" y="87">None</text>
   <rect x="85" y="113" width="74" height="32" rx="10"/>
   <rect x="83"
         y="111"
         width="74"
         height="32"
         class="terminal"
         rx="10"/>
   <text class="terminal" x="93" y="131">Random</text>
   <rect x="85" y="157" width="96" height="32" rx="10"/>
   <rect x="83"
         y="155"
         width="96"
         height="32"
         class="terminal"
         rx="10"/>
   <text class="terminal" x="93" y="175">DataDriven</text>
   <rect x="85" y="201" width="76" height="32" rx="10"/>
   <rect x="83"
         y="199"
         width="76"
         height="32"
         class="terminal"
         rx="10"/>
   <text class="terminal" x="93" y="219">RangeId</text>
   <rect x="85" y="245" width="52" height="32" rx="10"/>
   <rect x="83"
         y="243"
         width="52"
         height="32"
         class="terminal"
         rx="10"/>
   <text class="terminal" x="93" y="263">Ntile</text>
   <rect x="221" y="113" width="170" height="32" rx="10"/>
   <rect x="219"
         y="111"
         width="170"
         height="32"
         class="terminal"
         rx="10"/>
   <text class="terminal" x="229" y="131">--distributekeycolumn</text>
   <a xmlns:xlink="http://www.w3.org/1999/xlink"
      xlink:href="#KeyColumn"
      xlink:title="KeyColumn">
      <rect x="411" y="113" width="90" height="32"/>
      <rect x="409" y="111" width="90" height="32" class="nonterminal"/>
      <text class="nonterminal" x="419" y="131">KeyColumn</text>
   </a>
   <rect x="65" y="289" width="46" height="32" rx="10"/>
   <rect x="63"
         y="287"
         width="46"
         height="32"
         class="terminal"
         rx="10"/>
   <text class="terminal" x="73" y="307">Ctid</text>
   <rect x="65" y="333" width="62" height="32" rx="10"/>
   <rect x="63"
         y="331"
         width="62"
         height="32"
         class="terminal"
         rx="10"/>
   <text class="terminal" x="73" y="351">Rowid</text>
   <rect x="541" y="113" width="130" height="32" rx="10"/>
   <rect x="539"
         y="111"
         width="130"
         height="32"
         class="terminal"
         rx="10"/>
   <text class="terminal" x="549" y="131">--paralleldegree</text>
   <a xmlns:xlink="http://www.w3.org/1999/xlink"
      xlink:href="#Degree"
      xlink:title="Degree">
      <rect x="691" y="113" width="66" height="32"/>
      <rect x="689" y="111" width="66" height="32" class="nonterminal"/>
      <text class="nonterminal" x="699" y="131">Degree</text>
   </a>
   <rect x="777" y="113" width="74" height="32" rx="10"/>
   <rect x="775"
         y="111"
         width="74"
         height="32"
         class="terminal"
         rx="10"/>
   <text class="terminal" x="785" y="131">--merge</text>
   <rect x="891" y="113" width="48" height="32" rx="10"/>
   <rect x="889"
         y="111"
         width="48"
         height="32"
         class="terminal"
         rx="10"/>
   <text class="terminal" x="899" y="131">true</text>
   <rect x="891" y="157" width="52" height="32" rx="10"/>
   <rect x="889"
         y="155"
         width="52"
         height="32"
         class="terminal"
         rx="10"/>
   <text class="terminal" x="899" y="175">false</text>
   <path class="line"
         d="m19 17 h2 m0 0 h10 m82 0 h10 m2 0 l2 0 m2 0 l2 0 m2 0 l2 0 m-134 66 l2 0 m2 0 l2 0 m2 0 l2 0 m22 0 h10 m54 0 h10 m0 0 h864 m-958 0 h20 m938 0 h20 m-978 0 q10 0 10 10 m958 0 q0 -10 10 -10 m-968 10 v24 m958 0 v-24 m-958 24 q0 10 10 10 m938 0 q10 0 10 -10 m-908 10 h10 m74 0 h10 m0 0 h22 m-136 0 h20 m116 0 h20 m-156 0 q10 0 10 10 m136 0 q0 -10 10 -10 m-146 10 v24 m136 0 v-24 m-136 24 q0 10 10 10 m116 0 q10 0 10 -10 m-126 10 h10 m96 0 h10 m-126 -10 v20 m136 0 v-20 m-136 20 v24 m136 0 v-24 m-136 24 q0 10 10 10 m116 0 q10 0 10 -10 m-126 10 h10 m76 0 h10 m0 0 h20 m-126 -10 v20 m136 0 v-20 m-136 20 v24 m136 0 v-24 m-136 24 q0 10 10 10 m116 0 q10 0 10 -10 m-126 10 h10 m52 0 h10 m0 0 h44 m20 -132 h10 m170 0 h10 m0 0 h10 m90 0 h10 m-476 0 h20 m456 0 h20 m-496 0 q10 0 10 10 m476 0 q0 -10 10 -10 m-486 10 v156 m476 0 v-156 m-476 156 q0 10 10 10 m456 0 q10 0 10 -10 m-466 10 h10 m46 0 h10 m0 0 h390 m-466 -10 v20 m476 0 v-20 m-476 20 v24 m476 0 v-24 m-476 24 q0 10 10 10 m456 0 q10 0 10 -10 m-466 10 h10 m62 0 h10 m0 0 h374 m20 -220 h10 m130 0 h10 m0 0 h10 m66 0 h10 m0 0 h10 m74 0 h10 m20 0 h10 m48 0 h10 m0 0 h4 m-92 0 h20 m72 0 h20 m-112 0 q10 0 10 10 m92 0 q0 -10 10 -10 m-102 10 v24 m92 0 v-24 m-92 24 q0 10 10 10 m72 0 q10 0 10 -10 m-82 10 h10 m52 0 h10 m43 -88 h-3"/>
   <polygon points="1001 83 1009 79 1009 87"/>
   <polygon points="1001 83 993 79 993 87"/>
</svg>
