<?xml version="1.0" encoding="UTF-8"?>
<svg xmlns="http://www.w3.org/2000/svg" width="1115" height="201">
   <defs>
      <style type="text/css">
    @namespace "http://www.w3.org/2000/svg";
    .line                 {fill: none; stroke: #171717; stroke-width: 1;}
    .bold-line            {stroke: #F0F0F0; shape-rendering: crispEdges; stroke-width: 2;}
    .thin-line            {stroke: #F0F0F0; shape-rendering: crispEdges}
    .filled               {fill: #171717; stroke: none;}
    text.terminal         {font-family: Verdana, Sans-serif;
                            font-size: 12px;
                            fill: #F0F0F0;
                            font-weight: bold;
                          }
    text.nonterminal      {font-family: Verdana, Sans-serif;
                            font-size: 12px;
                            fill: #F0F0F0;
                            font-weight: normal;
                          }
    text.regexp           {font-family: Verdana, Sans-serif;
                            font-size: 12px;
                            fill: #F0F0F0;
                            font-weight: normal;
                          }
    rect, circle, polygon {fill: #171717; stroke: #171717;}
    rect.terminal         {fill: #222222; stroke: #171717; stroke-width: 1;}
    rect.nonterminal      {fill: #2A2A2A; stroke: #171717; stroke-width: 1;}
    rect.text             {fill: none; stroke: none;}
    polygon.regexp        {fill: #2F2F2F; stroke: #171717; stroke-width: 1;}
  </style>
   </defs>
   <polygon points="9 17 1 13 1 21"/>
   <polygon points="17 17 9 13 9 21"/>
   <rect x="51" y="3" width="74" height="32" rx="10"/>
   <rect x="49"
         y="1"
         width="74"
         height="32"
         class="terminal"
         rx="10"/>
   <text class="terminal" x="59" y="21">--server</text>
   <rect x="145" y="3" width="50" height="32" rx="10"/>
   <rect x="143"
         y="1"
         width="50"
         height="32"
         class="terminal"
         rx="10"/>
   <text class="terminal" x="153" y="21">Host</text>
   <rect x="235" y="35" width="62" height="32" rx="10"/>
   <rect x="233"
         y="33"
         width="62"
         height="32"
         class="terminal"
         rx="10"/>
   <text class="terminal" x="243" y="53">':Port'</text>
   <rect x="235" y="79" width="134" height="32" rx="10"/>
   <rect x="233"
         y="77"
         width="134"
         height="32"
         class="terminal"
         rx="10"/>
   <text class="terminal" x="243" y="97">'\InstanceName'</text>
   <rect x="235" y="123" width="146" height="32" rx="10"/>
   <rect x="233"
         y="121"
         width="146"
         height="32"
         class="terminal"
         rx="10"/>
   <text class="terminal" x="243" y="141">':Port'/TNSService</text>
   <rect x="441" y="3" width="80" height="32" rx="10"/>
   <rect x="439"
         y="1"
         width="80"
         height="32"
         class="terminal"
         rx="10"/>
   <text class="terminal" x="449" y="21">--trusted</text>
   <rect x="441" y="47" width="62" height="32" rx="10"/>
   <rect x="439"
         y="45"
         width="62"
         height="32"
         class="terminal"
         rx="10"/>
   <text class="terminal" x="449" y="65">--user</text>
   <rect x="523" y="47" width="88" height="32" rx="10"/>
   <rect x="521"
         y="45"
         width="88"
         height="32"
         class="terminal"
         rx="10"/>
   <text class="terminal" x="531" y="65">Username</text>
   <rect x="631" y="47" width="96" height="32" rx="10"/>
   <rect x="629"
         y="45"
         width="96"
         height="32"
         class="terminal"
         rx="10"/>
   <text class="terminal" x="639" y="65">--password</text>
   <rect x="747" y="47" width="86" height="32" rx="10"/>
   <rect x="745"
         y="45"
         width="86"
         height="32"
         class="terminal"
         rx="10"/>
   <text class="terminal" x="755" y="65">Password</text>
   <rect x="873" y="3" width="92" height="32" rx="10"/>
   <rect x="871"
         y="1"
         width="92"
         height="32"
         class="terminal"
         rx="10"/>
   <text class="terminal" x="881" y="21">--database</text>
   <rect x="985" y="3" width="82" height="32" rx="10"/>
   <rect x="983"
         y="1"
         width="82"
         height="32"
         class="terminal"
         rx="10"/>
   <text class="terminal" x="993" y="21">Database</text>
   <rect x="51" y="167" width="144" height="32" rx="10"/>
   <rect x="49"
         y="165"
         width="144"
         height="32"
         class="terminal"
         rx="10"/>
   <text class="terminal" x="59" y="185">--connectionstring</text>
   <rect x="215" y="167" width="116" height="32" rx="10"/>
   <rect x="213"
         y="165"
         width="116"
         height="32"
         class="terminal"
         rx="10"/>
   <text class="terminal" x="223" y="185">ConnectString</text>
   <path class="line"
         d="m17 17 h2 m20 0 h10 m74 0 h10 m0 0 h10 m50 0 h10 m20 0 h10 m0 0 h156 m-186 0 h20 m166 0 h20 m-206 0 q10 0 10 10 m186 0 q0 -10 10 -10 m-196 10 v12 m186 0 v-12 m-186 12 q0 10 10 10 m166 0 q10 0 10 -10 m-176 10 h10 m62 0 h10 m0 0 h84 m-176 -10 v20 m186 0 v-20 m-186 20 v24 m186 0 v-24 m-186 24 q0 10 10 10 m166 0 q10 0 10 -10 m-176 10 h10 m134 0 h10 m0 0 h12 m-176 -10 v20 m186 0 v-20 m-186 20 v24 m186 0 v-24 m-186 24 q0 10 10 10 m166 0 q10 0 10 -10 m-176 10 h10 m146 0 h10 m40 -120 h10 m80 0 h10 m0 0 h312 m-432 0 h20 m412 0 h20 m-452 0 q10 0 10 10 m432 0 q0 -10 10 -10 m-442 10 v24 m432 0 v-24 m-432 24 q0 10 10 10 m412 0 q10 0 10 -10 m-422 10 h10 m62 0 h10 m0 0 h10 m88 0 h10 m0 0 h10 m96 0 h10 m0 0 h10 m86 0 h10 m20 -44 h10 m92 0 h10 m0 0 h10 m82 0 h10 m-1056 0 h20 m1036 0 h20 m-1076 0 q10 0 10 10 m1056 0 q0 -10 10 -10 m-1066 10 v144 m1056 0 v-144 m-1056 144 q0 10 10 10 m1036 0 q10 0 10 -10 m-1046 10 h10 m144 0 h10 m0 0 h10 m116 0 h10 m0 0 h736 m23 -164 h-3"/>
   <polygon points="1105 17 1113 13 1113 21"/>
   <polygon points="1105 17 1097 13 1097 21"/>
</svg>
