<?xml version="1.0" encoding="UTF-8"?>
<svg xmlns="http://www.w3.org/2000/svg" width="1109" height="213">
   <defs>
      <style type="text/css">
    @namespace "http://www.w3.org/2000/svg";
    .line                 {fill: none; stroke: #171717; stroke-width: 1;}
    .bold-line            {stroke: #F0F0F0; shape-rendering: crispEdges; stroke-width: 2;}
    .thin-line            {stroke: #F0F0F0; shape-rendering: crispEdges}
    .filled               {fill: #171717; stroke: none;}
    text.terminal         {font-family: Verdana, Sans-serif;
                            font-size: 12px;
                            fill: #F0F0F0;
                            font-weight: bold;
                          }
    text.nonterminal      {font-family: Verdana, Sans-serif;
                            font-size: 12px;
                            fill: #F0F0F0;
                            font-weight: normal;
                          }
    text.regexp           {font-family: Verdana, Sans-serif;
                            font-size: 12px;
                            fill: #F0F0F0;
                            font-weight: normal;
                          }
    rect, circle, polygon {fill: #171717; stroke: #171717;}
    rect.terminal         {fill: #222222; stroke: #171717; stroke-width: 1;}
    rect.nonterminal      {fill: #2A2A2A; stroke: #171717; stroke-width: 1;}
    rect.text             {fill: none; stroke: none;}
    polygon.regexp        {fill: #2F2F2F; stroke: #171717; stroke-width: 1;}
  </style>
   </defs>
   <polygon points="9 17 1 13 1 21"/>
   <polygon points="17 17 9 13 9 21"/>
   <rect x="51" y="3" width="74" height="32" rx="10"/>
   <rect x="49"
         y="1"
         width="74"
         height="32"
         class="terminal"
         rx="10"/>
   <text class="terminal" x="59" y="21">--server</text>
   <rect x="165" y="3" width="50" height="32" rx="10"/>
   <rect x="163"
         y="1"
         width="50"
         height="32"
         class="terminal"
         rx="10"/>
   <text class="terminal" x="173" y="21">Host</text>
   <rect x="165" y="47" width="84" height="32" rx="10"/>
   <rect x="163"
         y="45"
         width="84"
         height="32"
         class="terminal"
         rx="10"/>
   <text class="terminal" x="173" y="65">Host:Port</text>
   <rect x="165" y="91" width="156" height="32" rx="10"/>
   <rect x="163"
         y="89"
         width="156"
         height="32"
         class="terminal"
         rx="10"/>
   <text class="terminal" x="173" y="109">Host\InstanceName</text>
   <rect x="165" y="135" width="170" height="32" rx="10"/>
   <rect x="163"
         y="133"
         width="170"
         height="32"
         class="terminal"
         rx="10"/>
   <text class="terminal" x="173" y="153">Host:Port/TNSService</text>
   <rect x="395" y="3" width="80" height="32" rx="10"/>
   <rect x="393"
         y="1"
         width="80"
         height="32"
         class="terminal"
         rx="10"/>
   <text class="terminal" x="403" y="21">--trusted</text>
   <rect x="395" y="47" width="62" height="32" rx="10"/>
   <rect x="393"
         y="45"
         width="62"
         height="32"
         class="terminal"
         rx="10"/>
   <text class="terminal" x="403" y="65">--user</text>
   <rect x="477" y="47" width="88" height="32" rx="10"/>
   <rect x="475"
         y="45"
         width="88"
         height="32"
         class="terminal"
         rx="10"/>
   <text class="terminal" x="485" y="65">Username</text>
   <rect x="585" y="47" width="96" height="32" rx="10"/>
   <rect x="583"
         y="45"
         width="96"
         height="32"
         class="terminal"
         rx="10"/>
   <text class="terminal" x="593" y="65">--password</text>
   <rect x="701" y="47" width="86" height="32" rx="10"/>
   <rect x="699"
         y="45"
         width="86"
         height="32"
         class="terminal"
         rx="10"/>
   <text class="terminal" x="709" y="65">Password</text>
   <rect x="827" y="3" width="92" height="32" rx="10"/>
   <rect x="825"
         y="1"
         width="92"
         height="32"
         class="terminal"
         rx="10"/>
   <text class="terminal" x="835" y="21">--database</text>
   <rect x="939" y="3" width="122" height="32" rx="10"/>
   <rect x="937"
         y="1"
         width="122"
         height="32"
         class="terminal"
         rx="10"/>
   <text class="terminal" x="947" y="21">DatabaseName</text>
   <rect x="51" y="179" width="144" height="32" rx="10"/>
   <rect x="49"
         y="177"
         width="144"
         height="32"
         class="terminal"
         rx="10"/>
   <text class="terminal" x="59" y="197">--connectionstring</text>
   <rect x="215" y="179" width="116" height="32" rx="10"/>
   <rect x="213"
         y="177"
         width="116"
         height="32"
         class="terminal"
         rx="10"/>
   <text class="terminal" x="223" y="197">ConnectString</text>
   <path class="line"
         d="m17 17 h2 m20 0 h10 m74 0 h10 m20 0 h10 m50 0 h10 m0 0 h120 m-210 0 h20 m190 0 h20 m-230 0 q10 0 10 10 m210 0 q0 -10 10 -10 m-220 10 v24 m210 0 v-24 m-210 24 q0 10 10 10 m190 0 q10 0 10 -10 m-200 10 h10 m84 0 h10 m0 0 h86 m-200 -10 v20 m210 0 v-20 m-210 20 v24 m210 0 v-24 m-210 24 q0 10 10 10 m190 0 q10 0 10 -10 m-200 10 h10 m156 0 h10 m0 0 h14 m-200 -10 v20 m210 0 v-20 m-210 20 v24 m210 0 v-24 m-210 24 q0 10 10 10 m190 0 q10 0 10 -10 m-200 10 h10 m170 0 h10 m40 -132 h10 m80 0 h10 m0 0 h312 m-432 0 h20 m412 0 h20 m-452 0 q10 0 10 10 m432 0 q0 -10 10 -10 m-442 10 v24 m432 0 v-24 m-432 24 q0 10 10 10 m412 0 q10 0 10 -10 m-422 10 h10 m62 0 h10 m0 0 h10 m88 0 h10 m0 0 h10 m96 0 h10 m0 0 h10 m86 0 h10 m20 -44 h10 m92 0 h10 m0 0 h10 m122 0 h10 m-1050 0 h20 m1030 0 h20 m-1070 0 q10 0 10 10 m1050 0 q0 -10 10 -10 m-1060 10 v156 m1050 0 v-156 m-1050 156 q0 10 10 10 m1030 0 q10 0 10 -10 m-1040 10 h10 m144 0 h10 m0 0 h10 m116 0 h10 m0 0 h730 m23 -176 h-3"/>
   <polygon points="1099 17 1107 13 1107 21"/>
   <polygon points="1099 17 1091 13 1091 21"/>
</svg>
