<?xml version="1.0" encoding="UTF-8"?>
<svg xmlns="http://www.w3.org/2000/svg" width="869" height="103">
   <defs>
      <style type="text/css">
    @namespace "http://www.w3.org/2000/svg";
    .line                 {fill: none; stroke: #171717; stroke-width: 1;}
    .bold-line            {stroke: #F0F0F0; shape-rendering: crispEdges; stroke-width: 2;}
    .thin-line            {stroke: #F0F0F0; shape-rendering: crispEdges}
    .filled               {fill: #171717; stroke: none;}
    text.terminal         {font-family: Verdana, Sans-serif;
                            font-size: 12px;
                            fill: #F0F0F0;
                            font-weight: bold;
                          }
    text.nonterminal      {font-family: Verdana, Sans-serif;
                            font-size: 12px;
                            fill: #F0F0F0;
                            font-weight: normal;
                          }
    text.regexp           {font-family: Verdana, Sans-serif;
                            font-size: 12px;
                            fill: #F0F0F0;
                            font-weight: normal;
                          }
    rect, circle, polygon {fill: #171717; stroke: #171717;}
    rect.terminal         {fill: #222222; stroke: #171717; stroke-width: 1;}
    rect.nonterminal      {fill: #2A2A2A; stroke: #171717; stroke-width: 1;}
    rect.text             {fill: none; stroke: none;}
    polygon.regexp        {fill: #2F2F2F; stroke: #171717; stroke-width: 1;}
  </style>
   </defs>
   <polygon points="9 17 1 13 1 21"/>
   <polygon points="17 17 9 13 9 21"/>
   <rect x="31" y="3" width="134" height="32" rx="10"/>
   <rect x="29"
         y="1"
         width="134"
         height="32"
         class="terminal"
         rx="10"/>
   <text class="terminal" x="39" y="21">--connectiontype</text>
   <a xmlns:xlink="http://www.w3.org/1999/xlink"
      xlink:href="#ConnectionType"
      xlink:title="ConnectionType">
      <rect x="185" y="3" width="122" height="32"/>
      <rect x="183" y="1" width="122" height="32" class="nonterminal"/>
      <text class="nonterminal" x="193" y="21">ConnectionType</text>
   </a>
   <a xmlns:xlink="http://www.w3.org/1999/xlink"
      xlink:href="#ConnectionParameters"
      xlink:title="ConnectionParameters">
      <rect x="327" y="3" width="164" height="32"/>
      <rect x="325" y="1" width="164" height="32" class="nonterminal"/>
      <text class="nonterminal" x="335" y="21">ConnectionParameters</text>
   </a>
   <a xmlns:xlink="http://www.w3.org/1999/xlink"
      xlink:href="#SourceInfos"
      xlink:title="SourceInfos">
      <rect x="511" y="3" width="96" height="32"/>
      <rect x="509" y="1" width="96" height="32" class="nonterminal"/>
      <text class="nonterminal" x="519" y="21">SourceInfos</text>
   </a>
   <a xmlns:xlink="http://www.w3.org/1999/xlink"
      xlink:href="#OutputInfo"
      xlink:title="OutputInfo">
      <rect x="627" y="3" width="88" height="32"/>
      <rect x="625" y="1" width="88" height="32" class="nonterminal"/>
      <text class="nonterminal" x="635" y="21">OutputInfo</text>
   </a>
   <a xmlns:xlink="http://www.w3.org/1999/xlink"
      xlink:href="#FormatOptions"
      xlink:title="FormatOptions">
      <rect x="735" y="3" width="112" height="32"/>
      <rect x="733" y="1" width="112" height="32" class="nonterminal"/>
      <text class="nonterminal" x="743" y="21">FormatOptions</text>
   </a>
   <a xmlns:xlink="http://www.w3.org/1999/xlink"
      xlink:href="#AdvancedParameters"
      xlink:title="AdvancedParameters">
      <rect x="687" y="69" width="154" height="32"/>
      <rect x="685" y="67" width="154" height="32" class="nonterminal"/>
      <text class="nonterminal" x="695" y="87">AdvancedParameters</text>
   </a>
   <path class="line"
         d="m17 17 h2 m0 0 h10 m134 0 h10 m0 0 h10 m122 0 h10 m0 0 h10 m164 0 h10 m0 0 h10 m96 0 h10 m0 0 h10 m88 0 h10 m0 0 h10 m112 0 h10 m2 0 l2 0 m2 0 l2 0 m2 0 l2 0 m-204 66 l2 0 m2 0 l2 0 m2 0 l2 0 m2 0 h10 m154 0 h10 m3 0 h-3"/>
   <polygon points="859 83 867 79 867 87"/>
   <polygon points="859 83 851 79 851 87"/>
</svg>
