<?xml version="1.0" encoding="UTF-8"?>
<svg xmlns="http://www.w3.org/2000/svg" width="961" height="191">
   <defs>
      <style type="text/css">
    @namespace "http://www.w3.org/2000/svg";
    .line                 {fill: none; stroke: #171717; stroke-width: 1;}
    .bold-line            {stroke: #F0F0F0; shape-rendering: crispEdges; stroke-width: 2;}
    .thin-line            {stroke: #F0F0F0; shape-rendering: crispEdges}
    .filled               {fill: #171717; stroke: none;}
    text.terminal         {font-family: Verdana, Sans-serif;
                            font-size: 12px;
                            fill: #F0F0F0;
                            font-weight: bold;
                          }
    text.nonterminal      {font-family: Verdana, Sans-serif;
                            font-size: 12px;
                            fill: #F0F0F0;
                            font-weight: normal;
                          }
    text.regexp           {font-family: Verdana, Sans-serif;
                            font-size: 12px;
                            fill: #F0F0F0;
                            font-weight: normal;
                          }
    rect, circle, polygon {fill: #171717; stroke: #171717;}
    rect.terminal         {fill: #222222; stroke: #171717; stroke-width: 1;}
    rect.nonterminal      {fill: #2A2A2A; stroke: #171717; stroke-width: 1;}
    rect.text             {fill: none; stroke: none;}
    polygon.regexp        {fill: #2F2F2F; stroke: #171717; stroke-width: 1;}
  </style>
   </defs>
   <polygon points="9 17 1 13 1 21"/>
   <polygon points="17 17 9 13 9 21"/>
   <rect x="31" y="3" width="134" height="32" rx="10"/>
   <rect x="29"
         y="1"
         width="134"
         height="32"
         class="terminal"
         rx="10"/>
   <text class="terminal" x="39" y="21">--connectiontype</text>
   <a xmlns:xlink="http://www.w3.org/1999/xlink"
      xlink:href="#ConnectionType"
      xlink:title="ConnectionType">
      <rect x="185" y="3" width="122" height="32"/>
      <rect x="183" y="1" width="122" height="32" class="nonterminal"/>
      <text class="nonterminal" x="193" y="21">ConnectionType</text>
   </a>
   <a xmlns:xlink="http://www.w3.org/1999/xlink"
      xlink:href="#ConnectionParameters"
      xlink:title="ConnectionParameters">
      <rect x="327" y="3" width="164" height="32"/>
      <rect x="325" y="1" width="164" height="32" class="nonterminal"/>
      <text class="nonterminal" x="335" y="21">ConnectionParameters</text>
   </a>
   <a xmlns:xlink="http://www.w3.org/1999/xlink"
      xlink:href="#SourceInfos"
      xlink:title="SourceInfos">
      <rect x="511" y="3" width="96" height="32"/>
      <rect x="509" y="1" width="96" height="32" class="nonterminal"/>
      <text class="nonterminal" x="519" y="21">SourceInfos</text>
   </a>
   <a xmlns:xlink="http://www.w3.org/1999/xlink"
      xlink:href="#OutputInfoCSV"
      xlink:title="OutputInfoCSV">
      <rect x="647" y="3" width="114" height="32"/>
      <rect x="645" y="1" width="114" height="32" class="nonterminal"/>
      <text class="nonterminal" x="655" y="21">OutputInfoCSV</text>
   </a>
   <a xmlns:xlink="http://www.w3.org/1999/xlink"
      xlink:href="#FormatCSVOptions"
      xlink:title="FormatCSVOptions">
      <rect x="781" y="3" width="138" height="32"/>
      <rect x="779" y="1" width="138" height="32" class="nonterminal"/>
      <text class="nonterminal" x="789" y="21">FormatCSVOptions</text>
   </a>
   <a xmlns:xlink="http://www.w3.org/1999/xlink"
      xlink:href="#OutputInfoParquet"
      xlink:title="OutputInfoParquet">
      <rect x="647" y="47" width="138" height="32"/>
      <rect x="645" y="45" width="138" height="32" class="nonterminal"/>
      <text class="nonterminal" x="655" y="65">OutputInfoParquet</text>
   </a>
   <a xmlns:xlink="http://www.w3.org/1999/xlink"
      xlink:href="#OutputInfoBinary"
      xlink:title="OutputInfoBinary">
      <rect x="647" y="91" width="128" height="32"/>
      <rect x="645" y="89" width="128" height="32" class="nonterminal"/>
      <text class="nonterminal" x="655" y="109">OutputInfoBinary</text>
   </a>
   <a xmlns:xlink="http://www.w3.org/1999/xlink"
      xlink:href="#AdvancedParameters"
      xlink:title="AdvancedParameters">
      <rect x="643" y="157" width="154" height="32"/>
      <rect x="641" y="155" width="154" height="32" class="nonterminal"/>
      <text class="nonterminal" x="651" y="175">AdvancedParameters</text>
   </a>
   <a xmlns:xlink="http://www.w3.org/1999/xlink"
      xlink:href="#LogParameters"
      xlink:title="LogParameters">
      <rect x="817" y="157" width="116" height="32"/>
      <rect x="815" y="155" width="116" height="32" class="nonterminal"/>
      <text class="nonterminal" x="825" y="175">LogParameters</text>
   </a>
   <path class="line"
         d="m17 17 h2 m0 0 h10 m134 0 h10 m0 0 h10 m122 0 h10 m0 0 h10 m164 0 h10 m0 0 h10 m96 0 h10 m20 0 h10 m114 0 h10 m0 0 h10 m138 0 h10 m-312 0 h20 m292 0 h20 m-332 0 q10 0 10 10 m312 0 q0 -10 10 -10 m-322 10 v24 m312 0 v-24 m-312 24 q0 10 10 10 m292 0 q10 0 10 -10 m-302 10 h10 m138 0 h10 m0 0 h134 m-302 -10 v20 m312 0 v-20 m-312 20 v24 m312 0 v-24 m-312 24 q0 10 10 10 m292 0 q10 0 10 -10 m-302 10 h10 m128 0 h10 m0 0 h144 m22 -88 l2 0 m2 0 l2 0 m2 0 l2 0 m-340 154 l2 0 m2 0 l2 0 m2 0 l2 0 m2 0 h10 m154 0 h10 m0 0 h10 m116 0 h10 m3 0 h-3"/>
   <polygon points="951 171 959 167 959 175"/>
   <polygon points="951 171 943 167 943 175"/>
</svg>
