<?xml version="1.0" encoding="UTF-8"?>
<svg xmlns="http://www.w3.org/2000/svg" width="561" height="37">
   <defs>
      <style type="text/css">
    @namespace "http://www.w3.org/2000/svg";
    .line                 {fill: none; stroke: #171717; stroke-width: 1;}
    .bold-line            {stroke: #F0F0F0; shape-rendering: crispEdges; stroke-width: 2;}
    .thin-line            {stroke: #F0F0F0; shape-rendering: crispEdges}
    .filled               {fill: #171717; stroke: none;}
    text.terminal         {font-family: Verdana, Sans-serif;
                            font-size: 12px;
                            fill: #F0F0F0;
                            font-weight: bold;
                          }
    text.nonterminal      {font-family: Verdana, Sans-serif;
                            font-size: 12px;
                            fill: #F0F0F0;
                            font-weight: normal;
                          }
    text.regexp           {font-family: Verdana, Sans-serif;
                            font-size: 12px;
                            fill: #F0F0F0;
                            font-weight: normal;
                          }
    rect, circle, polygon {fill: #171717; stroke: #171717;}
    rect.terminal         {fill: #222222; stroke: #171717; stroke-width: 1;}
    rect.nonterminal      {fill: #2A2A2A; stroke: #171717; stroke-width: 1;}
    rect.text             {fill: none; stroke: none;}
    polygon.regexp        {fill: #2F2F2F; stroke: #171717; stroke-width: 1;}
  </style>
   </defs>
   <polygon points="9 17 1 13 1 21"/>
   <polygon points="17 17 9 13 9 21"/>
   <rect x="31" y="3" width="98" height="32" rx="10"/>
   <rect x="29"
         y="1"
         width="98"
         height="32"
         class="terminal"
         rx="10"/>
   <text class="terminal" x="39" y="21">--fileoutput</text>
   <a xmlns:xlink="http://www.w3.org/1999/xlink"
      xlink:href="#FileName.parquet"
      xlink:title="FileName.parquet">
      <rect x="149" y="3" width="132" height="32"/>
      <rect x="147" y="1" width="132" height="32" class="nonterminal"/>
      <text class="nonterminal" x="157" y="21">FileName.parquet</text>
   </a>
   <rect x="301" y="3" width="92" height="32" rx="10"/>
   <rect x="299"
         y="1"
         width="92"
         height="32"
         class="terminal"
         rx="10"/>
   <text class="terminal" x="309" y="21">--directory</text>
   <a xmlns:xlink="http://www.w3.org/1999/xlink"
      xlink:href="#OutputDirectory"
      xlink:title="OutputDirectory">
      <rect x="413" y="3" width="120" height="32"/>
      <rect x="411" y="1" width="120" height="32" class="nonterminal"/>
      <text class="nonterminal" x="421" y="21">OutputDirectory</text>
   </a>
   <path class="line"
         d="m17 17 h2 m0 0 h10 m98 0 h10 m0 0 h10 m132 0 h10 m0 0 h10 m92 0 h10 m0 0 h10 m120 0 h10 m3 0 h-3"/>
   <polygon points="551 17 559 13 559 21"/>
   <polygon points="551 17 543 13 543 21"/>
</svg>
